<svg xmlns="http://www.w3.org/2000/svg" viewBox="0 0 101.57 153.75"><defs></defs><g id="Layer_2" data-name="Layer 2"><g id="Layer_1-2" data-name="Layer 1"><path class="cls-1" fill="#f6f6f6" fill-rule="evenodd" d="M51.42,96.4,1.89,118.66a3.2,3.2,0,0,0,.13,5.9l72.55,28.95a3.2,3.2,0,0,0,4.11-4.29L55.66,98A3.2,3.2,0,0,0,51.42,96.4Z"/><path class="cls-1" fill="#f6f6f6" fill-rule="evenodd" d="M72.93,42.1,37.55,58a2.3,2.3,0,0,0,.09,4.22L89.47,82.9a2.29,2.29,0,0,0,2.93-3.07L76,43.25A2.3,2.3,0,0,0,72.93,42.1Z"/><path class="cls-1" fill="#f6f6f6" fill-rule="evenodd" d="M89.76.12,68.54,9.66a1.38,1.38,0,0,0,0,2.53L99.69,24.6a1.37,1.37,0,0,0,1.76-1.84L91.58.81A1.38,1.38,0,0,0,89.76.12Z"/></g></g></svg>

 